<?xml version="1.0" encoding="UTF-8"?>
<svg xmlns="http://www.w3.org/2000/svg" width="1280" height="2678" viewBox="0 0 1280 2678" role="img" aria-label="yein portfolio"><rect x="0" y="0" width="1280" height="2678" fill="#0A0A0B"></rect><g><defs><radialGradient id="lr-primary" cx="1100.8" cy="-160.68" r="1088" fx="1100.8" fy="-160.68" gradientUnits="userSpaceOnUse"><stop offset="0%" stop-color="#FFFFFF" stop-opacity="0.22"></stop><stop offset="25%" stop-color="#FFFFFF" stop-opacity="0.09"></stop><stop offset="55%" stop-color="#FFFFFF" stop-opacity="0.025"></stop><stop offset="100%" stop-color="#FFFFFF" stop-opacity="0"></stop></radialGradient><radialGradient id="lr-secondary" cx="230.39999999999998" cy="-107.12" r="576" fx="230.39999999999998" fy="-107.12" gradientUnits="userSpaceOnUse"><stop offset="0%" stop-color="#FFFFFF" stop-opacity="0.06"></stop><stop offset="70%" stop-color="#FFFFFF" stop-opacity="0.01"></stop><stop offset="100%" stop-color="#FFFFFF" stop-opacity="0"></stop></radialGradient></defs><rect x="0" y="0" width="1280" height="1071.2" fill="url(#lr-primary)"></rect><rect x="0" y="0" width="1280" height="1071.2" fill="url(#lr-secondary)"></rect></g><g><g><defs><linearGradient id="shiny-hero" x1="-40%" y1="0" x2="0%" y2="0" gradientUnits="userSpaceOnUse"><stop offset="0%" stop-color="#F5F5F5" stop-opacity="1"></stop><stop offset="50%" stop-color="#FFFFFF" stop-opacity="1"></stop><stop offset="100%" stop-color="#F5F5F5" stop-opacity="1"></stop><animate attributeName="x1" from="-40%" to="140%" dur="3s" repeatCount="indefinite"></animate><animate attributeName="x2" from="0%" to="180%" dur="3s" repeatCount="indefinite"></animate></linearGradient><style id="shiny-style-hero">@media (prefers-reduced-motion: reduce) { #shiny-hero animate { animation: none; } }</style></defs><text x="64" y="264" fill="url(#shiny-hero)" font-family="'Inter Display', 'Inter', system-ui, -apple-system, 'Segoe UI', sans-serif" font-size="160" font-weight="800" letter-spacing="-2">Yein Sung</text></g><text x="64" y="324" fill="#F5F5F5" font-family="'Inter', system-ui, -apple-system, 'Segoe UI', sans-serif" font-size="18">Building open-source tools and ecosystems.</text></g><g><g><text x="64" y="578" fill="#F5F5F5" font-family="'Inter Display', 'Inter', system-ui, -apple-system, 'Segoe UI', sans-serif" font-size="14" font-weight="600" letter-spacing="2" text-transform="uppercase">ECOSYSTEM</text><rect x="64" y="588" width="40" height="2" fill="#C5FF3F"></rect></g><a href="https://github.com/syi0808/pubm" target="_blank"><g><rect x="64" y="604" width="362.6666666666667" height="200" rx="14" fill="none" stroke="#3A3A3D" stroke-width="1"></rect><g transform="translate(86 626)" stroke="#F5F5F5" stroke-width="1.5" fill="none" stroke-linecap="round" stroke-linejoin="round"><path d="m7.5 4.27 9 5.15"></path><path d="M21 8a2 2 0 0 0-1-1.73l-7-4a2 2 0 0 0-2 0l-7 4A2 2 0 0 0 3 8v8a2 2 0 0 0 1 1.73l7 4a2 2 0 0 0 2 0l7-4A2 2 0 0 0 21 16Z"></path><path d="M3.3 7 12 12l8.7-5"></path><path d="M12 22V12"></path></g><text x="86" y="678" fill="#F5F5F5" font-family="'Inter Display', 'Inter', system-ui, -apple-system, 'Segoe UI', sans-serif" font-size="24" font-weight="700" letter-spacing="-0.5">pubm</text><text x="86" y="708" fill="#F5F5F5" font-family="'Inter', system-ui, -apple-system, 'Segoe UI', sans-serif" font-size="13" font-weight="400"><tspan x="86" dy="0">One-step publish to npm, jsr, crates.io, and</tspan><tspan x="86" dy="18">private registries.</tspan></text><g><g><rect x="86" y="762" width="80" height="20" rx="4" fill="none" stroke="#3A3A3D" stroke-width="1"></rect><text x="94" y="776" fill="#3A3A3D" font-family="'JetBrains Mono', ui-monospace, 'SF Mono', Menlo, monospace" font-size="11">TypeScript</text></g><g><rect x="174" y="762" width="41.6" height="20" rx="4" fill="none" stroke="#3A3A3D" stroke-width="1"></rect><text x="182" y="776" fill="#3A3A3D" font-family="'JetBrains Mono', ui-monospace, 'SF Mono', Menlo, monospace" font-size="11">Rust</text></g><g><rect x="223.6" y="762" width="35.2" height="20" rx="4" fill="none" stroke="#3A3A3D" stroke-width="1"></rect><text x="231.6" y="776" fill="#3A3A3D" font-family="'JetBrains Mono', ui-monospace, 'SF Mono', Menlo, monospace" font-size="11">Bun</text></g></g></g></a><a href="https://github.com/syi0808/cluvo" target="_blank"><g><rect x="458.6666666666667" y="604" width="362.6666666666667" height="200" rx="14" fill="none" stroke="#3A3A3D" stroke-width="1"></rect><g transform="translate(480.6666666666667 626)" stroke="#F5F5F5" stroke-width="1.5" fill="none" stroke-linecap="round" stroke-linejoin="round"><path d="M12.83 2.18a2 2 0 0 0-1.66 0L2.6 6.08a1 1 0 0 0 0 1.83l8.58 3.91a2 2 0 0 0 1.66 0l8.58-3.9a1 1 0 0 0 0-1.83Z"></path><path d="m22 17.65-9.17 4.16a2 2 0 0 1-1.66 0L2 17.65"></path><path d="m22 12.65-9.17 4.16a2 2 0 0 1-1.66 0L2 12.65"></path></g><text x="480.6666666666667" y="678" fill="#F5F5F5" font-family="'Inter Display', 'Inter', system-ui, -apple-system, 'Segoe UI', sans-serif" font-size="24" font-weight="700" letter-spacing="-0.5">cluvo</text><text x="480.6666666666667" y="708" fill="#F5F5F5" font-family="'Inter', system-ui, -apple-system, 'Segoe UI', sans-serif" font-size="13" font-weight="400"><tspan x="480.6666666666667" dy="0">Local-first bug reporting SDK for OSS CLIs and</tspan><tspan x="480.6666666666667" dy="18">SDKs.</tspan></text><g><g><rect x="480.6666666666667" y="762" width="80" height="20" rx="4" fill="none" stroke="#3A3A3D" stroke-width="1"></rect><text x="488.6666666666667" y="776" fill="#3A3A3D" font-family="'JetBrains Mono', ui-monospace, 'SF Mono', Menlo, monospace" font-size="11">TypeScript</text></g><g><rect x="568.6666666666667" y="762" width="35.2" height="20" rx="4" fill="none" stroke="#3A3A3D" stroke-width="1"></rect><text x="576.6666666666667" y="776" fill="#3A3A3D" font-family="'JetBrains Mono', ui-monospace, 'SF Mono', Menlo, monospace" font-size="11">Bun</text></g></g></g></a><a href="https://github.com/syi0808/update-kit" target="_blank"><g><rect x="853.3333333333334" y="604" width="362.6666666666667" height="200" rx="14" fill="none" stroke="#3A3A3D" stroke-width="1"></rect><g transform="translate(875.3333333333334 626)" stroke="#F5F5F5" stroke-width="1.5" fill="none" stroke-linecap="round" stroke-linejoin="round"><path d="M3 12a9 9 0 0 1 9-9 9.75 9.75 0 0 1 6.74 2.74L21 8"></path><path d="M21 3v5h-5"></path><path d="M21 12a9 9 0 0 1-9 9 9.75 9.75 0 0 1-6.74-2.74L3 16"></path><path d="M3 21v-5h5"></path></g><text x="875.3333333333334" y="678" fill="#F5F5F5" font-family="'Inter Display', 'Inter', system-ui, -apple-system, 'Segoe UI', sans-serif" font-size="24" font-weight="700" letter-spacing="-0.5">update-kit</text><text x="875.3333333333334" y="708" fill="#F5F5F5" font-family="'Inter', system-ui, -apple-system, 'Segoe UI', sans-serif" font-size="13" font-weight="400"><tspan x="875.3333333333334" dy="0">Channel-aware self-update toolkit for CLIs.</tspan></text><g><g><rect x="875.3333333333334" y="762" width="80" height="20" rx="4" fill="none" stroke="#3A3A3D" stroke-width="1"></rect><text x="883.3333333333334" y="776" fill="#3A3A3D" font-family="'JetBrains Mono', ui-monospace, 'SF Mono', Menlo, monospace" font-size="11">TypeScript</text></g><g><rect x="963.3333333333334" y="762" width="41.6" height="20" rx="4" fill="none" stroke="#3A3A3D" stroke-width="1"></rect><text x="971.3333333333334" y="776" fill="#3A3A3D" font-family="'JetBrains Mono', ui-monospace, 'SF Mono', Menlo, monospace" font-size="11">Node</text></g></g></g></a></g><g><g><text x="64" y="938" fill="#F5F5F5" font-family="'Inter Display', 'Inter', system-ui, -apple-system, 'Segoe UI', sans-serif" font-size="14" font-weight="600" letter-spacing="2" text-transform="uppercase">UTILITY</text><rect x="64" y="948" width="40" height="2" fill="#C5FF3F"></rect></g><a href="https://github.com/syi0808/shellsuggest" target="_blank"><g><rect x="64" y="964" width="362.6666666666667" height="200" rx="14" fill="none" stroke="#3A3A3D" stroke-width="1"></rect><g transform="translate(86 986)" stroke="#F5F5F5" stroke-width="1.5" fill="none" stroke-linecap="round" stroke-linejoin="round"><path d="m4 17 6-6-6-6"></path><path d="M12 19h8"></path></g><text x="86" y="1038" fill="#F5F5F5" font-family="'Inter Display', 'Inter', system-ui, -apple-system, 'Segoe UI', sans-serif" font-size="24" font-weight="700" letter-spacing="-0.5">shellsuggest</text><text x="86" y="1068" fill="#F5F5F5" font-family="'Inter', system-ui, -apple-system, 'Segoe UI', sans-serif" font-size="13" font-weight="400"><tspan x="86" dy="0">CWD-aware inline zsh suggestions with instant</tspan><tspan x="86" dy="18">ranking.</tspan></text><g><g><rect x="86" y="1122" width="41.6" height="20" rx="4" fill="none" stroke="#3A3A3D" stroke-width="1"></rect><text x="94" y="1136" fill="#3A3A3D" font-family="'JetBrains Mono', ui-monospace, 'SF Mono', Menlo, monospace" font-size="11">Rust</text></g></g></g></a><a href="https://github.com/syi0808/chkpt" target="_blank"><g><rect x="458.6666666666667" y="964" width="362.6666666666667" height="200" rx="14" fill="none" stroke="#3A3A3D" stroke-width="1"></rect><g transform="translate(480.6666666666667 986)" stroke="#F5F5F5" stroke-width="1.5" fill="none" stroke-linecap="round" stroke-linejoin="round"><path d="M6 3v12"></path><path d="M18 9a3 3 0 1 0 0-6 3 3 0 0 0 0 6Z"></path><path d="M6 21a3 3 0 1 0 0-6 3 3 0 0 0 0 6Z"></path><path d="M15 6a9 9 0 0 0-9 9"></path></g><text x="480.6666666666667" y="1038" fill="#F5F5F5" font-family="'Inter Display', 'Inter', system-ui, -apple-system, 'Segoe UI', sans-serif" font-size="24" font-weight="700" letter-spacing="-0.5">chkpt</text><text x="480.6666666666667" y="1068" fill="#F5F5F5" font-family="'Inter', system-ui, -apple-system, 'Segoe UI', sans-serif" font-size="13" font-weight="400"><tspan x="480.6666666666667" dy="0">Content-addressable checkpoints for fast</tspan><tspan x="480.6666666666667" dy="18">workspace snapshots.</tspan></text><g><g><rect x="480.6666666666667" y="1122" width="41.6" height="20" rx="4" fill="none" stroke="#3A3A3D" stroke-width="1"></rect><text x="488.6666666666667" y="1136" fill="#3A3A3D" font-family="'JetBrains Mono', ui-monospace, 'SF Mono', Menlo, monospace" font-size="11">Rust</text></g><g><rect x="530.2666666666667" y="1122" width="41.6" height="20" rx="4" fill="none" stroke="#3A3A3D" stroke-width="1"></rect><text x="538.2666666666667" y="1136" fill="#3A3A3D" font-family="'JetBrains Mono', ui-monospace, 'SF Mono', Menlo, monospace" font-size="11">Node</text></g></g></g></a><a href="https://github.com/syi0808/complete-checkpoint" target="_blank"><g><rect x="853.3333333333334" y="964" width="362.6666666666667" height="200" rx="14" fill="none" stroke="#3A3A3D" stroke-width="1"></rect><g transform="translate(875.3333333333334 986)" stroke="#F5F5F5" stroke-width="1.5" fill="none" stroke-linecap="round" stroke-linejoin="round"><path d="M6 3v12"></path><path d="M18 9a3 3 0 1 0 0-6 3 3 0 0 0 0 6Z"></path><path d="M6 21a3 3 0 1 0 0-6 3 3 0 0 0 0 6Z"></path><path d="M15 6a9 9 0 0 0-9 9"></path></g><text x="875.3333333333334" y="1038" fill="#F5F5F5" font-family="'Inter Display', 'Inter', system-ui, -apple-system, 'Segoe UI', sans-serif" font-size="24" font-weight="700" letter-spacing="-0.5">complete-checkpoint</text><text x="875.3333333333334" y="1068" fill="#F5F5F5" font-family="'Inter', system-ui, -apple-system, 'Segoe UI', sans-serif" font-size="13" font-weight="400"><tspan x="875.3333333333334" dy="0">Atomic workspace + agent checkpointing with</tspan><tspan x="875.3333333333334" dy="18">rollback.</tspan></text><g><g><rect x="875.3333333333334" y="1122" width="41.6" height="20" rx="4" fill="none" stroke="#3A3A3D" stroke-width="1"></rect><text x="883.3333333333334" y="1136" fill="#3A3A3D" font-family="'JetBrains Mono', ui-monospace, 'SF Mono', Menlo, monospace" font-size="11">Rust</text></g></g></g></a><a href="https://github.com/syi0808/syncor" target="_blank"><g><rect x="64" y="1196" width="560" height="200" rx="14" fill="none" stroke="#3A3A3D" stroke-width="1"></rect><g transform="translate(86 1218)" stroke="#F5F5F5" stroke-width="1.5" fill="none" stroke-linecap="round" stroke-linejoin="round"><path d="M3 12a9 9 0 0 1 9-9 9.75 9.75 0 0 1 6.74 2.74L21 8"></path><path d="M21 3v5h-5"></path><path d="M21 12a9 9 0 0 1-9 9 9.75 9.75 0 0 1-6.74-2.74L3 16"></path><path d="M3 21v-5h5"></path></g><text x="86" y="1270" fill="#F5F5F5" font-family="'Inter Display', 'Inter', system-ui, -apple-system, 'Segoe UI', sans-serif" font-size="24" font-weight="700" letter-spacing="-0.5">syncor</text><text x="86" y="1300" fill="#F5F5F5" font-family="'Inter', system-ui, -apple-system, 'Segoe UI', sans-serif" font-size="13" font-weight="400"><tspan x="86" dy="0">Cross-machine directory sync via Git with content-addressed dedup.</tspan></text><g><g><rect x="86" y="1354" width="41.6" height="20" rx="4" fill="none" stroke="#3A3A3D" stroke-width="1"></rect><text x="94" y="1368" fill="#3A3A3D" font-family="'JetBrains Mono', ui-monospace, 'SF Mono', Menlo, monospace" font-size="11">Rust</text></g></g></g></a><a href="https://github.com/syi0808/freescreen" target="_blank"><g><rect x="656" y="1196" width="560" height="200" rx="14" fill="none" stroke="#3A3A3D" stroke-width="1"></rect><g transform="translate(678 1218)" stroke="#F5F5F5" stroke-width="1.5" fill="none" stroke-linecap="round" stroke-linejoin="round"><path d="m22 8-6 4 6 4V8Z"></path><path d="M14 6H2a2 2 0 0 0-2 2v8a2 2 0 0 0 2 2h12a2 2 0 0 0 2-2V8a2 2 0 0 0-2-2Z"></path></g><text x="678" y="1270" fill="#F5F5F5" font-family="'Inter Display', 'Inter', system-ui, -apple-system, 'Segoe UI', sans-serif" font-size="24" font-weight="700" letter-spacing="-0.5">screenize</text><text x="678" y="1300" fill="#F5F5F5" font-family="'Inter', system-ui, -apple-system, 'Segoe UI', sans-serif" font-size="13" font-weight="400"><tspan x="678" dy="0">Open-source screen recording with auto-zoom and effects.</tspan></text><g><g><rect x="678" y="1354" width="48" height="20" rx="4" fill="none" stroke="#3A3A3D" stroke-width="1"></rect><text x="686" y="1368" fill="#3A3A3D" font-family="'JetBrains Mono', ui-monospace, 'SF Mono', Menlo, monospace" font-size="11">Swift</text></g></g></g></a></g><g><g><text x="64" y="1530" fill="#F5F5F5" font-family="'Inter Display', 'Inter', system-ui, -apple-system, 'Segoe UI', sans-serif" font-size="14" font-weight="600" letter-spacing="2" text-transform="uppercase">FUN</text><rect x="64" y="1540" width="40" height="2" fill="#C5FF3F"></rect></g><a href="https://github.com/syi0808/asciianimesvg" target="_blank"><g><rect x="64" y="1556" width="1152" height="200" rx="14" fill="none" stroke="#3A3A3D" stroke-width="1"></rect><g transform="translate(86 1578)" stroke="#F5F5F5" stroke-width="1.5" fill="none" stroke-linecap="round" stroke-linejoin="round"><path d="m12 3-1.9 5.8a2 2 0 0 1-1.287 1.288L3 12l5.8 1.9a2 2 0 0 1 1.288 1.287L12 21l1.9-5.8a2 2 0 0 1 1.287-1.288L21 12l-5.8-1.9a2 2 0 0 1-1.288-1.287Z"></path><path d="M5 3v4"></path><path d="M19 17v4"></path><path d="M3 5h4"></path><path d="M17 19h4"></path></g><text x="86" y="1630" fill="#F5F5F5" font-family="'Inter Display', 'Inter', system-ui, -apple-system, 'Segoe UI', sans-serif" font-size="24" font-weight="700" letter-spacing="-0.5">asciianimesvg</text><text x="86" y="1660" fill="#F5F5F5" font-family="'Inter', system-ui, -apple-system, 'Segoe UI', sans-serif" font-size="13" font-weight="400"><tspan x="86" dy="0">Animated ASCII-art SVGs from text, with eight effects.</tspan></text><g><g><rect x="86" y="1714" width="41.6" height="20" rx="4" fill="none" stroke="#3A3A3D" stroke-width="1"></rect><text x="94" y="1728" fill="#3A3A3D" font-family="'JetBrains Mono', ui-monospace, 'SF Mono', Menlo, monospace" font-size="11">Rust</text></g><g><rect x="135.6" y="1714" width="41.6" height="20" rx="4" fill="none" stroke="#3A3A3D" stroke-width="1"></rect><text x="143.6" y="1728" fill="#3A3A3D" font-family="'JetBrains Mono', ui-monospace, 'SF Mono', Menlo, monospace" font-size="11">WASM</text></g></g></g></a></g><g><g><text x="64" y="1890" fill="#F5F5F5" font-family="'Inter Display', 'Inter', system-ui, -apple-system, 'Segoe UI', sans-serif" font-size="14" font-weight="600" letter-spacing="2" text-transform="uppercase">DEPENDENCIES</text><rect x="64" y="1900" width="40" height="2" fill="#C5FF3F"></rect></g><g transform="translate(64 1916)"><line x1="709.3679121828036" y1="143" x2="576" y2="220" stroke="#3A3A3D" stroke-width="1" stroke-dasharray="3 3"></line><line x1="576" y1="220" x2="709.3679121828036" y2="297" stroke="#3A3A3D" stroke-width="1" stroke-dasharray="3 3"></line><line x1="442.63208781719646" y1="297.00000000000006" x2="576" y2="374" stroke="#3A3A3D" stroke-width="1" stroke-dasharray="3 3"></line><line x1="442.63208781719646" y1="297.00000000000006" x2="442.6320878171964" y2="143.0000000000001" stroke="#3A3A3D" stroke-width="1" stroke-dasharray="3 3"></line><line x1="442.63208781719646" y1="297.00000000000006" x2="576" y2="220" stroke="#3A3A3D" stroke-width="1" stroke-dasharray="3 3"></line><line x1="576" y1="374" x2="576" y2="220" stroke="#3A3A3D" stroke-width="1" stroke-dasharray="3 3"></line><line x1="576" y1="220" x2="442.6320878171964" y2="143.0000000000001" stroke="#3A3A3D" stroke-width="1" stroke-dasharray="3 3"></line><line x1="576" y1="66" x2="576" y2="220" stroke="#3A3A3D" stroke-width="1" stroke-dasharray="3 3"></line><g><circle cx="576" cy="220" r="14" fill="none" stroke="#C5FF3F" stroke-width="1.5"></circle><circle cx="576" cy="220" r="6" fill="#F5F5F5"></circle><text x="576" y="244" fill="#F5F5F5" font-family="'JetBrains Mono', ui-monospace, 'SF Mono', Menlo, monospace" font-size="11" text-anchor="middle">pubm</text></g><g><circle cx="576" cy="66" r="6" fill="#F5F5F5"></circle><text x="576" y="90" fill="#F5F5F5" font-family="'JetBrains Mono', ui-monospace, 'SF Mono', Menlo, monospace" font-size="11" text-anchor="middle">asciianimesvg</text></g><g><circle cx="709.3679121828036" cy="143" r="6" fill="#F5F5F5"></circle><text x="709.3679121828036" y="167" fill="#F5F5F5" font-family="'JetBrains Mono', ui-monospace, 'SF Mono', Menlo, monospace" font-size="11" text-anchor="middle">cluvo</text></g><g><circle cx="709.3679121828036" cy="297" r="6" fill="#F5F5F5"></circle><text x="709.3679121828036" y="321" fill="#F5F5F5" font-family="'JetBrains Mono', ui-monospace, 'SF Mono', Menlo, monospace" font-size="11" text-anchor="middle">update-kit</text></g><g><circle cx="576" cy="374" r="14" fill="none" stroke="#C5FF3F" stroke-width="1.5"></circle><circle cx="576" cy="374" r="6" fill="#F5F5F5"></circle><text x="576" y="398" fill="#F5F5F5" font-family="'JetBrains Mono', ui-monospace, 'SF Mono', Menlo, monospace" font-size="11" text-anchor="middle">complete-checkpoint</text></g><g><circle cx="442.63208781719646" cy="297.00000000000006" r="14" fill="none" stroke="#C5FF3F" stroke-width="1.5"></circle><circle cx="442.63208781719646" cy="297.00000000000006" r="6" fill="#F5F5F5"></circle><text x="442.63208781719646" y="321.00000000000006" fill="#F5F5F5" font-family="'JetBrains Mono', ui-monospace, 'SF Mono', Menlo, monospace" font-size="11" text-anchor="middle">chkpt</text></g><g><circle cx="442.6320878171964" cy="143.0000000000001" r="14" fill="none" stroke="#C5FF3F" stroke-width="1.5"></circle><circle cx="442.6320878171964" cy="143.0000000000001" r="6" fill="#F5F5F5"></circle><text x="442.6320878171964" y="167.0000000000001" fill="#F5F5F5" font-family="'JetBrains Mono', ui-monospace, 'SF Mono', Menlo, monospace" font-size="11" text-anchor="middle">syncor</text></g><g><circle cx="60" cy="220" r="6" fill="#F5F5F5"></circle><text x="60" y="244" fill="#F5F5F5" font-family="'JetBrains Mono', ui-monospace, 'SF Mono', Menlo, monospace" font-size="11" text-anchor="middle">screenize</text></g><g><circle cx="1092" cy="220" r="6" fill="#F5F5F5"></circle><text x="1092" y="244" fill="#F5F5F5" font-family="'JetBrains Mono', ui-monospace, 'SF Mono', Menlo, monospace" font-size="11" text-anchor="middle">shellsuggest</text></g></g></g><g><g><text x="64" y="2490" fill="#F5F5F5" font-family="'Inter Display', 'Inter', system-ui, -apple-system, 'Segoe UI', sans-serif" font-size="14" font-weight="600" letter-spacing="2" text-transform="uppercase">CONTRIBUTION</text><rect x="64" y="2500" width="40" height="2" fill="#C5FF3F"></rect></g><g><text x="64" y="2540" fill="#F5F5F5" font-family="'Inter', system-ui, -apple-system, 'Segoe UI', sans-serif" font-size="16" font-style="italic">I've contributed to open-source projects across the stack. It's the fastest way I've found to learn how an ecosystem actually works.</text><a href="https://github.com/vercel/next.js" target="_blank"><g><rect x="64" y="2588" width="170" height="40" rx="6" fill="none" stroke="#3A3A3D" stroke-width="1"></rect><g transform="translate(78 2599) scale(0.75)" stroke="#F5F5F5" stroke-width="1.5" fill="none" stroke-linecap="round" stroke-linejoin="round"><path d="M13.73 4a2 2 0 0 0-3.46 0l-8 14a2 2 0 0 0 1.73 3h16a2 2 0 0 0 1.73-3Z"></path></g><text x="106" y="2612" fill="#F5F5F5" font-family="'JetBrains Mono', ui-monospace, 'SF Mono', Menlo, monospace" font-size="13" text-anchor="start">Next.js</text></g></a><a href="https://github.com/nodejs/node" target="_blank"><g><rect x="248" y="2588" width="170" height="40" rx="6" fill="none" stroke="#3A3A3D" stroke-width="1"></rect><g transform="translate(262 2599) scale(0.75)" stroke="#F5F5F5" stroke-width="1.5" fill="none" stroke-linecap="round" stroke-linejoin="round"><path d="M21 16V8a2 2 0 0 0-1-1.73l-7-4a2 2 0 0 0-2 0l-7 4A2 2 0 0 0 3 8v8a2 2 0 0 0 1 1.73l7 4a2 2 0 0 0 2 0l7-4A2 2 0 0 0 21 16z"></path></g><text x="290" y="2612" fill="#F5F5F5" font-family="'JetBrains Mono', ui-monospace, 'SF Mono', Menlo, monospace" font-size="13" text-anchor="start">Node.js</text></g></a><a href="https://github.com/microsoft/TypeScript" target="_blank"><g><rect x="432" y="2588" width="170" height="40" rx="6" fill="none" stroke="#3A3A3D" stroke-width="1"></rect><g transform="translate(446 2599) scale(0.75)" stroke="#F5F5F5" stroke-width="1.5" fill="none" stroke-linecap="round" stroke-linejoin="round"><path d="m18 16 4-4-4-4"></path><path d="m6 8-4 4 4 4"></path><path d="m14.5 4-5 16"></path></g><text x="474" y="2612" fill="#F5F5F5" font-family="'JetBrains Mono', ui-monospace, 'SF Mono', Menlo, monospace" font-size="13" text-anchor="start">TypeScript</text></g></a><a href="https://github.com/prettier/prettier" target="_blank"><g><rect x="616" y="2588" width="170" height="40" rx="6" fill="none" stroke="#3A3A3D" stroke-width="1"></rect><g transform="translate(630 2599) scale(0.75)" stroke="#F5F5F5" stroke-width="1.5" fill="none" stroke-linecap="round" stroke-linejoin="round"><path d="M15 4V2"></path><path d="M15 16v-2"></path><path d="M8 9h2"></path><path d="M20 9h2"></path><path d="M17.8 11.8 19 13"></path><path d="M15 9h.01"></path><path d="M17.8 6.2 19 5"></path><path d="m3 21 9-9"></path><path d="M12.2 6.2 11 5"></path></g><text x="658" y="2612" fill="#F5F5F5" font-family="'JetBrains Mono', ui-monospace, 'SF Mono', Menlo, monospace" font-size="13" text-anchor="start">Prettier</text></g></a><a href="https://github.com/vitest-dev/vitest" target="_blank"><g><rect x="800" y="2588" width="170" height="40" rx="6" fill="none" stroke="#3A3A3D" stroke-width="1"></rect><g transform="translate(814 2599) scale(0.75)" stroke="#F5F5F5" stroke-width="1.5" fill="none" stroke-linecap="round" stroke-linejoin="round"><path d="M4 14a1 1 0 0 1-.78-1.63l9.9-10.2a.5.5 0 0 1 .86.46l-1.92 6.02A1 1 0 0 0 13 10h7a1 1 0 0 1 .78 1.63l-9.9 10.2a.5.5 0 0 1-.86-.46l1.92-6.02A1 1 0 0 0 11 14z"></path></g><text x="842" y="2612" fill="#F5F5F5" font-family="'JetBrains Mono', ui-monospace, 'SF Mono', Menlo, monospace" font-size="13" text-anchor="start">Vitest</text></g></a><a href="https://github.com/browserslist/browserslist" target="_blank"><g><rect x="984" y="2588" width="170" height="40" rx="6" fill="none" stroke="#3A3A3D" stroke-width="1"></rect><g transform="translate(998 2599) scale(0.75)" stroke="#F5F5F5" stroke-width="1.5" fill="none" stroke-linecap="round" stroke-linejoin="round"><path d="M20 3H4a2 2 0 0 0-2 2v10a2 2 0 0 0 2 2h16a2 2 0 0 0 2-2V5a2 2 0 0 0-2-2Z"></path><path d="M8 21h8"></path><path d="M12 17v4"></path></g><text x="1026" y="2612" fill="#F5F5F5" font-family="'JetBrains Mono', ui-monospace, 'SF Mono', Menlo, monospace" font-size="13" text-anchor="start">Browserslist</text></g></a></g></g></svg>